<?xml version="1.0" encoding="UTF-8"?>
<svg id="Layer_1" data-name="Layer 1" xmlns="http://www.w3.org/2000/svg" viewBox="0 0 12.54 14.48">
  <defs>
    <style>
      .cls-1 {
        fill: #4080f0;
      }
    </style>
  </defs>
  <polygon class="cls-1" points="12.54 7.77 12.54 9.84 11.63 9.31 10.75 8.8 9.84 8.28 8.96 7.77 8.04 7.24 8.96 6.71 9.84 6.21 10.75 6.73 11.63 7.24 12.54 7.77"/>
  <polygon class="cls-1" points="12.54 9.84 12.54 10.85 11.63 11.38 10.75 11.89 9.84 12.41 8.96 12.92 8.04 13.45 7.17 13.95 6.25 14.48 5.38 13.98 5.38 12.92 6.25 12.41 7.17 11.89 8.04 11.38 8.96 10.85 9.84 10.34 10.75 9.82 10.75 8.8 11.63 9.31 12.54 9.84"/>
  <polygon class="cls-1" points="8.04 9.31 7.17 9.82 6.25 10.34 5.38 9.84 4.46 9.31 3.58 8.8 2.67 8.28 1.79 7.77 .88 7.24 0 6.73 0 3.61 .88 3.1 1.79 2.58 2.67 2.07 3.58 1.54 4.46 1.03 5.38 .51 5.38 1.56 6.25 2.07 5.38 2.58 4.46 3.1 3.58 3.61 2.67 4.14 1.79 4.64 1.79 5.7 2.67 6.21 3.58 6.73 4.46 7.24 5.38 7.77 6.25 8.28 7.17 8.8 8.04 9.31"/>
  <polygon class="cls-1" points="6.25 12.41 5.38 12.92 5.38 13.98 4.46 13.45 3.58 12.94 2.67 12.41 1.79 11.91 .88 11.38 0 10.87 0 8.8 .88 9.31 1.79 9.84 2.67 10.34 3.58 10.87 4.46 11.38 5.38 11.91 6.25 12.41"/>
  <polygon class="cls-1" points="9.84 6.21 8.96 6.71 8.04 7.24 7.17 7.75 6.25 8.28 5.38 7.77 4.46 7.24 5.38 6.71 6.25 6.21 5.38 5.7 4.46 5.17 5.38 4.64 6.25 4.14 7.17 4.67 8.04 5.17 8.96 5.7 9.84 6.21"/>
  <polygon class="cls-1" points="12.54 3.63 12.54 5.7 11.63 5.17 10.75 4.67 9.84 4.14 8.96 3.63 8.04 3.1 7.17 2.6 6.25 2.07 5.38 1.56 5.38 .51 6.25 0 7.17 .53 8.04 1.03 8.96 1.56 9.84 2.07 10.75 2.6 11.63 3.1 12.54 3.63"/>
</svg>