<?xml version="1.0" encoding="UTF-8"?>
<svg id="Layer_1" data-name="Layer 1" xmlns="http://www.w3.org/2000/svg" viewBox="0 0 180 70">
  <defs>
    <style>
      .cls-1 {
        fill: #231f20;
      }
    </style>
  </defs>
  <g>
    <polygon class="cls-1" points="56.28 37.33 56.28 46.47 52.25 44.14 48.37 41.9 44.33 39.57 40.46 37.33 36.42 35 40.46 32.67 44.33 30.43 48.37 32.76 52.25 35 56.28 37.33"/>
    <polygon class="cls-1" points="56.28 46.47 56.28 50.94 52.25 53.28 48.37 55.51 44.33 57.84 40.46 60.08 36.42 62.41 32.54 64.65 28.51 66.98 24.63 64.74 24.63 60.08 28.51 57.84 32.54 55.51 36.42 53.28 40.46 50.94 44.33 48.71 48.37 46.37 48.37 41.9 52.25 44.14 56.28 46.47"/>
    <polygon class="cls-1" points="36.42 44.14 32.54 46.37 28.51 48.71 24.63 46.47 20.59 44.14 16.72 41.9 12.68 39.57 8.8 37.33 4.76 35 .89 32.76 .89 18.96 4.76 16.72 8.8 14.39 12.68 12.16 16.72 9.82 20.59 7.59 24.63 5.26 24.63 9.92 28.51 12.16 24.63 14.39 20.59 16.72 16.72 18.96 12.68 21.29 8.8 23.53 8.8 28.19 12.68 30.43 16.72 32.76 20.59 35 24.63 37.33 28.51 39.57 32.54 41.9 36.42 44.14"/>
    <polygon class="cls-1" points="28.51 57.84 24.63 60.08 24.63 64.74 20.59 62.41 16.72 60.18 12.68 57.84 8.8 55.61 4.76 53.28 .89 51.04 .89 41.9 4.77 44.14 8.8 46.47 12.68 48.71 16.72 51.04 20.59 53.28 24.63 55.61 28.51 57.84"/>
    <polygon class="cls-1" points="44.33 30.43 40.46 32.67 36.42 35 32.54 37.24 28.51 39.57 24.63 37.33 20.59 35 24.63 32.67 28.51 30.43 24.63 28.19 20.59 25.86 24.63 23.53 28.51 21.29 32.54 23.63 36.42 25.86 40.46 28.19 44.33 30.43"/>
    <polygon class="cls-1" points="56.28 19.06 56.28 28.19 52.25 25.86 48.37 23.63 44.33 21.29 40.46 19.06 36.42 16.72 32.54 14.49 28.51 12.16 24.63 9.92 24.63 5.26 28.51 3.02 32.54 5.35 36.42 7.59 40.46 9.92 44.33 12.16 48.37 14.49 52.25 16.72 56.28 19.06"/>
  </g>
  <g>
    <g>
      <path class="cls-1" d="M72.82,39.86c-1.41,0-2.66-.21-3.73-.63-1.07-.42-2.1-1.09-3.1-2.01-.13-.12-.24-.26-.33-.43-.09-.17-.13-.35-.13-.54,0-.31,.11-.58,.33-.82,.22-.24,.49-.36,.82-.36,.27,0,.51,.1,.72,.32,.75,.73,1.55,1.28,2.42,1.66,.87,.38,1.85,.57,2.94,.57,.84,0,1.6-.13,2.26-.4s1.2-.64,1.61-1.12,.6-1.03,.6-1.66c0-.76-.22-1.39-.65-1.89-.43-.5-1.02-.91-1.78-1.23-.76-.32-1.63-.61-2.62-.86-.88-.21-1.69-.46-2.42-.76-.74-.3-1.38-.67-1.92-1.12-.54-.45-.97-.99-1.26-1.63-.3-.64-.44-1.4-.44-2.28,0-1.09,.29-2.04,.86-2.85,.57-.81,1.37-1.45,2.39-1.91,1.02-.46,2.19-.69,3.51-.69,1.17,0,2.27,.19,3.31,.57,1.04,.38,1.88,.91,2.51,1.58,.38,.36,.57,.73,.57,1.09,0,.27-.12,.52-.36,.76s-.51,.36-.82,.36c-.21,0-.4-.07-.57-.2-.33-.36-.74-.69-1.25-.97-.51-.29-1.05-.52-1.63-.69s-1.17-.26-1.76-.26c-.88,0-1.65,.13-2.32,.39-.67,.26-1.19,.62-1.56,1.08-.37,.46-.56,1.01-.56,1.66,0,.73,.21,1.32,.63,1.79,.42,.47,.98,.85,1.69,1.15,.71,.3,1.49,.56,2.35,.79,.94,.23,1.8,.49,2.59,.79,.79,.3,1.48,.66,2.05,1.1,.57,.44,1.02,1,1.33,1.68,.32,.68,.47,1.51,.47,2.51,0,1.05-.3,1.99-.89,2.81-.59,.82-1.4,1.47-2.42,1.95-1.02,.48-2.17,.72-3.45,.72Z"/>
      <path class="cls-1" d="M90.19,24.52c1.26,0,2.26,.27,3,.82,.74,.54,1.26,1.27,1.58,2.18,.32,.91,.47,1.92,.47,3.02v7.85c0,.33-.11,.6-.33,.83-.22,.23-.49,.34-.82,.34-.34,0-.62-.12-.83-.34-.21-.23-.32-.51-.32-.83v-7.85c0-.71-.11-1.36-.32-1.95-.21-.59-.56-1.07-1.05-1.42-.49-.35-1.15-.53-1.99-.53-.78,0-1.5,.18-2.15,.53s-1.17,.83-1.55,1.42-.57,1.24-.57,1.95v7.85c0,.33-.11,.6-.33,.83-.22,.23-.49,.34-.82,.34s-.6-.12-.82-.34c-.22-.23-.33-.51-.33-.83V19.53c0-.32,.11-.6,.33-.83,.22-.23,.49-.34,.82-.34,.34,0,.62,.11,.83,.34,.21,.23,.32,.51,.32,.83v8.54l-.57,.63c.1-.5,.31-1,.63-1.51,.33-.51,.74-.96,1.23-1.36,.5-.4,1.05-.72,1.66-.96,.61-.24,1.25-.36,1.92-.36Z"/>
      <path class="cls-1" d="M100.62,39.57c-.33,0-.6-.12-.82-.34-.22-.23-.33-.51-.33-.83v-12.47c0-.34,.11-.63,.33-.85,.22-.22,.49-.33,.82-.33,.34,0,.62,.11,.83,.33,.21,.22,.32,.5,.32,.85v3.76l-.34-.6c.12-.59,.32-1.17,.62-1.73,.3-.56,.67-1.07,1.13-1.52,.46-.45,.98-.8,1.58-1.06,.59-.26,1.24-.39,1.95-.39,.42,0,.81,.1,1.16,.3s.53,.48,.53,.85c0,.4-.1,.7-.32,.9-.21,.2-.45,.3-.72,.3-.25,0-.49-.06-.72-.17-.23-.11-.52-.17-.86-.17-.48,0-.95,.13-1.42,.4-.47,.27-.9,.64-1.29,1.1-.39,.47-.71,1-.95,1.61-.24,.6-.36,1.25-.36,1.94v6.97c0,.33-.11,.6-.33,.83-.22,.23-.49,.34-.82,.34Z"/>
      <path class="cls-1" d="M112,22.6c-.48,0-.83-.1-1.06-.29s-.34-.49-.34-.89v-.4c0-.4,.12-.7,.37-.89,.25-.19,.6-.29,1.06-.29s.8,.1,1.03,.29c.23,.19,.34,.49,.34,.89v.4c0,.4-.12,.7-.36,.89s-.59,.29-1.05,.29Zm1.17,15.79c0,.33-.11,.6-.33,.83-.22,.23-.49,.34-.82,.34-.34,0-.63-.12-.85-.34-.22-.23-.33-.51-.33-.83v-12.7c0-.32,.11-.6,.33-.83,.22-.23,.5-.34,.85-.34,.33,0,.6,.11,.82,.34,.22,.23,.33,.51,.33,.83v12.7Z"/>
      <path class="cls-1" d="M126.8,19.5c.33,0,.6,.11,.83,.34,.23,.23,.34,.51,.34,.83v17.72c0,.33-.12,.6-.36,.83-.24,.23-.52,.34-.85,.34-.36,0-.66-.12-.88-.34-.22-.23-.33-.51-.33-.83V20.68c0-.32,.11-.6,.34-.83,.23-.23,.53-.34,.89-.34Zm-.11,8.74h13.33l-.03,2.24h-13.39l.09-2.24Zm13.3-8.74c.36,0,.65,.11,.87,.34,.22,.23,.33,.51,.33,.83v17.72c0,.33-.12,.6-.34,.83-.23,.23-.53,.34-.89,.34-.33,0-.6-.12-.83-.34-.23-.23-.34-.51-.34-.83V20.68c0-.32,.12-.6,.36-.83,.24-.23,.52-.34,.85-.34Z"/>
      <path class="cls-1" d="M158.01,24.61c.33,0,.6,.11,.82,.33,.22,.22,.33,.49,.33,.82v12.64c0,.33-.11,.6-.33,.83-.22,.23-.49,.34-.82,.34-.34,0-.63-.12-.85-.34-.22-.23-.33-.51-.33-.83v-2.72l.54-.06c0,.44-.14,.9-.43,1.39-.29,.49-.68,.95-1.18,1.38-.5,.43-1.08,.78-1.75,1.06-.67,.28-1.4,.42-2.18,.42-1.3,0-2.47-.34-3.51-1.02-1.04-.68-1.86-1.6-2.45-2.77-.59-1.17-.89-2.49-.89-3.98s.3-2.84,.9-4c.6-1.16,1.41-2.06,2.44-2.72s2.17-.99,3.45-.99c.82,0,1.59,.13,2.29,.4,.71,.27,1.32,.63,1.85,1.09,.53,.46,.93,.96,1.22,1.52,.29,.55,.43,1.11,.43,1.66l-.75-.17v-3.12c0-.32,.11-.6,.33-.82s.5-.33,.85-.33Zm-5.91,13.13c.96,0,1.8-.25,2.52-.75s1.3-1.17,1.72-2.02c.42-.85,.63-1.81,.63-2.88s-.21-2-.63-2.84c-.42-.84-.99-1.51-1.72-2.01s-1.57-.75-2.52-.75-1.77,.24-2.51,.73c-.74,.49-1.31,1.15-1.73,1.99-.42,.84-.63,1.8-.63,2.87s.21,2.03,.62,2.88c.41,.85,.98,1.52,1.72,2.02s1.58,.75,2.54,.75Z"/>
      <path class="cls-1" d="M164.55,39.57c-.33,0-.6-.12-.82-.34-.22-.23-.33-.51-.33-.83v-12.47c0-.34,.11-.63,.33-.85,.22-.22,.49-.33,.82-.33,.34,0,.62,.11,.83,.33,.21,.22,.32,.5,.32,.85v3.76l-.34-.6c.12-.59,.32-1.17,.62-1.73,.3-.56,.67-1.07,1.13-1.52,.46-.45,.98-.8,1.58-1.06,.59-.26,1.24-.39,1.95-.39,.42,0,.81,.1,1.16,.3s.53,.48,.53,.85c0,.4-.1,.7-.32,.9-.21,.2-.45,.3-.72,.3-.25,0-.49-.06-.72-.17-.23-.11-.52-.17-.86-.17-.48,0-.95,.13-1.42,.4-.47,.27-.9,.64-1.29,1.1-.39,.47-.71,1-.95,1.61-.24,.6-.36,1.25-.36,1.94v6.97c0,.33-.11,.6-.33,.83-.22,.23-.49,.34-.82,.34Z"/>
      <path class="cls-1" d="M175.93,22.6c-.48,0-.83-.1-1.06-.29s-.34-.49-.34-.89v-.4c0-.4,.12-.7,.37-.89,.25-.19,.6-.29,1.06-.29s.8,.1,1.03,.29c.23,.19,.34,.49,.34,.89v.4c0,.4-.12,.7-.36,.89s-.59,.29-1.05,.29Zm1.17,15.79c0,.33-.11,.6-.33,.83-.22,.23-.49,.34-.82,.34-.34,0-.63-.12-.85-.34-.22-.23-.33-.51-.33-.83v-12.7c0-.32,.11-.6,.33-.83,.22-.23,.5-.34,.85-.34,.33,0,.6,.11,.82,.34,.22,.23,.33,.51,.33,.83v12.7Z"/>
    </g>
    <g>
      <path class="cls-1" d="M67.17,50.62c0,.11-.04,.2-.12,.28-.08,.08-.17,.11-.28,.11-.12,0-.22-.04-.29-.11-.07-.08-.11-.17-.11-.28v-5.91c0-.11,.04-.2,.11-.28,.08-.08,.18-.11,.3-.11,.11,0,.2,.04,.28,.11,.08,.08,.11,.17,.11,.28v5.91Z"/>
      <path class="cls-1" d="M71.17,45.95c.43,0,.77,.09,1.02,.27,.25,.18,.43,.42,.53,.72,.11,.3,.16,.64,.16,1.01v2.68c0,.11-.04,.2-.11,.28-.07,.08-.16,.11-.27,.11-.11,0-.21-.04-.28-.11-.07-.08-.1-.17-.1-.28v-2.66c0-.24-.04-.46-.11-.66-.07-.2-.2-.36-.37-.47-.17-.12-.4-.18-.69-.18-.27,0-.51,.06-.74,.18-.22,.12-.4,.28-.54,.47-.13,.2-.2,.42-.2,.66v2.66c0,.11-.04,.2-.11,.28-.07,.08-.16,.11-.27,.11s-.2-.04-.27-.11c-.07-.08-.11-.17-.11-.28v-4.16c0-.11,.04-.21,.11-.28s.16-.11,.27-.11c.11,0,.21,.04,.28,.11,.07,.07,.11,.17,.11,.28v.67l-.19,.21c.03-.17,.11-.33,.22-.5,.11-.17,.26-.32,.43-.45s.36-.24,.57-.32c.21-.08,.43-.12,.66-.12Z"/>
      <path class="cls-1" d="M76.63,46.15c.1,0,.19,.03,.26,.1,.07,.07,.11,.15,.11,.25s-.04,.19-.11,.25c-.07,.07-.16,.1-.26,.1h-2.4c-.1,0-.19-.03-.26-.1-.07-.07-.1-.15-.1-.25,0-.11,.03-.19,.1-.26,.07-.06,.16-.09,.26-.09h2.4Zm-.27-2.19c.11,0,.22,.01,.34,.04,.12,.03,.22,.07,.31,.13s.13,.14,.13,.25c0,.1-.03,.19-.1,.25-.06,.07-.14,.1-.23,.1-.06,0-.14-.02-.24-.05-.1-.03-.21-.05-.32-.05-.15,0-.27,.03-.36,.1-.09,.06-.16,.15-.2,.25-.04,.1-.06,.22-.06,.35v5.27c0,.11-.04,.2-.11,.28-.07,.08-.16,.11-.27,.11-.11,0-.21-.04-.28-.11-.07-.08-.11-.17-.11-.28v-5.27c0-.42,.13-.76,.4-1.01,.26-.25,.63-.38,1.09-.38Z"/>
      <path class="cls-1" d="M82.34,48.53c0,.5-.11,.94-.33,1.33-.22,.39-.52,.69-.89,.92-.37,.22-.79,.33-1.26,.33s-.89-.11-1.26-.33c-.38-.22-.67-.53-.89-.92s-.33-.83-.33-1.33,.11-.94,.33-1.33,.52-.69,.89-.92c.38-.22,.8-.33,1.26-.33s.88,.11,1.26,.33c.37,.22,.67,.53,.89,.92,.22,.39,.33,.83,.33,1.33Zm-.77,0c0-.37-.08-.69-.22-.97-.15-.28-.35-.5-.61-.66-.26-.16-.55-.24-.86-.24s-.62,.08-.87,.24c-.26,.16-.46,.38-.62,.66-.15,.28-.23,.6-.23,.97s.08,.68,.23,.96c.15,.28,.36,.5,.62,.66,.26,.16,.55,.24,.87,.24s.61-.08,.86-.24c.26-.16,.46-.38,.61-.66,.15-.28,.22-.6,.22-.96Z"/>
      <path class="cls-1" d="M88.2,51.11c-.47,0-.89-.07-1.24-.21-.36-.14-.7-.36-1.03-.67-.04-.04-.08-.09-.11-.14-.03-.06-.04-.12-.04-.18,0-.1,.04-.19,.11-.27,.07-.08,.16-.12,.27-.12,.09,0,.17,.04,.24,.1,.25,.24,.52,.43,.81,.55,.29,.13,.62,.19,.98,.19,.28,0,.53-.04,.75-.13,.22-.09,.4-.21,.54-.37s.2-.34,.2-.55c0-.25-.07-.47-.21-.63-.14-.17-.34-.3-.59-.41-.25-.11-.54-.2-.87-.29-.29-.07-.56-.15-.81-.25s-.46-.22-.64-.37c-.18-.15-.32-.33-.42-.54-.1-.21-.15-.47-.15-.76,0-.36,.1-.68,.29-.95,.19-.27,.46-.48,.8-.63,.34-.15,.73-.23,1.17-.23,.39,0,.76,.06,1.1,.19,.35,.13,.63,.3,.84,.53,.13,.12,.19,.24,.19,.36,0,.09-.04,.17-.12,.25-.08,.08-.17,.12-.27,.12-.07,0-.13-.02-.19-.07-.11-.12-.25-.23-.42-.33-.17-.1-.35-.17-.54-.23s-.39-.09-.59-.09c-.29,0-.55,.04-.77,.13-.22,.09-.4,.21-.52,.36-.12,.15-.19,.34-.19,.55,0,.24,.07,.44,.21,.6s.33,.28,.56,.38c.24,.1,.5,.19,.78,.26,.31,.08,.6,.16,.86,.26,.26,.1,.49,.22,.68,.37,.19,.15,.34,.33,.44,.56,.1,.23,.16,.5,.16,.84,0,.35-.1,.66-.3,.94-.2,.27-.47,.49-.81,.65s-.72,.24-1.15,.24Z"/>
      <path class="cls-1" d="M96.29,48.53c0,.5-.11,.94-.33,1.33s-.52,.69-.89,.92c-.37,.22-.79,.33-1.26,.33s-.89-.11-1.26-.33c-.38-.22-.67-.53-.89-.92-.22-.39-.33-.83-.33-1.33s.11-.94,.33-1.33c.22-.39,.52-.69,.89-.92,.38-.22,.8-.33,1.26-.33s.88,.11,1.26,.33c.37,.22,.67,.53,.89,.92s.33,.83,.33,1.33Zm-.77,0c0-.37-.08-.69-.22-.97-.15-.28-.35-.5-.61-.66-.26-.16-.55-.24-.87-.24s-.62,.08-.87,.24c-.26,.16-.46,.38-.62,.66-.15,.28-.23,.6-.23,.97s.08,.68,.23,.96c.15,.28,.36,.5,.62,.66,.26,.16,.55,.24,.87,.24s.61-.08,.87-.24c.26-.16,.46-.38,.61-.66,.15-.28,.22-.6,.22-.96Z"/>
      <path class="cls-1" d="M98.28,50.62c0,.11-.04,.2-.11,.28-.08,.08-.17,.11-.28,.11s-.2-.04-.27-.11c-.07-.08-.11-.17-.11-.28v-6.29c0-.11,.04-.2,.11-.28,.08-.08,.17-.12,.28-.12,.11,0,.21,.04,.28,.12,.07,.08,.11,.17,.11,.28v6.29Z"/>
      <path class="cls-1" d="M103.41,46.07c.11,0,.21,.04,.28,.11,.07,.07,.11,.17,.11,.28v2.6c0,.64-.18,1.14-.54,1.5-.36,.35-.86,.53-1.5,.53s-1.14-.18-1.5-.53c-.36-.35-.54-.85-.54-1.5v-2.6c0-.11,.04-.21,.11-.28s.16-.11,.27-.11c.12,0,.21,.04,.28,.11s.11,.17,.11,.28v2.6c0,.43,.11,.76,.33,.98,.22,.22,.54,.33,.94,.33s.72-.11,.95-.33c.22-.22,.33-.55,.33-.98v-2.6c0-.11,.04-.21,.11-.28s.16-.11,.28-.11Z"/>
      <path class="cls-1" d="M105.02,46.1h2.25c.1,0,.19,.04,.25,.1,.07,.07,.1,.16,.1,.26,0,.1-.03,.18-.1,.24-.07,.07-.15,.1-.25,.1h-2.25c-.09,0-.18-.04-.25-.11s-.11-.15-.11-.25c0-.1,.04-.19,.11-.25,.07-.07,.16-.1,.25-.1Zm1-1.3c.11,0,.2,.04,.27,.11,.07,.08,.1,.17,.1,.28v4.61c0,.15,.02,.27,.07,.34,.04,.08,.1,.13,.18,.16s.14,.04,.21,.04c.06,0,.12-.01,.17-.03s.1-.03,.17-.03,.12,.03,.18,.09c.05,.06,.08,.14,.08,.23,0,.12-.07,.21-.2,.29-.13,.08-.28,.12-.45,.12-.09,0-.2,0-.33-.02-.13-.01-.26-.05-.39-.12-.13-.07-.23-.19-.32-.35s-.13-.39-.13-.68v-4.64c0-.11,.04-.2,.11-.28,.08-.08,.17-.11,.28-.11Z"/>
      <path class="cls-1" d="M109.02,45.36c-.16,0-.28-.03-.35-.09-.08-.06-.11-.16-.11-.3v-.13c0-.13,.04-.23,.12-.3s.2-.1,.35-.1,.27,.03,.34,.1c.08,.06,.12,.16,.12,.3v.13c0,.13-.04,.23-.12,.3-.08,.06-.2,.09-.35,.09Zm.39,5.27c0,.11-.04,.2-.11,.28-.07,.08-.16,.11-.27,.11-.11,0-.21-.04-.28-.11-.07-.08-.11-.17-.11-.28v-4.23c0-.11,.04-.2,.11-.28,.07-.08,.17-.11,.28-.11s.2,.04,.27,.11c.07,.08,.11,.17,.11,.28v4.23Z"/>
      <path class="cls-1" d="M115.48,48.53c0,.5-.11,.94-.33,1.33s-.52,.69-.89,.92c-.37,.22-.79,.33-1.26,.33s-.89-.11-1.26-.33c-.38-.22-.67-.53-.89-.92s-.33-.83-.33-1.33,.11-.94,.33-1.33,.52-.69,.89-.92c.38-.22,.8-.33,1.26-.33s.88,.11,1.26,.33c.37,.22,.67,.53,.89,.92s.33,.83,.33,1.33Zm-.77,0c0-.37-.08-.69-.22-.97-.15-.28-.35-.5-.61-.66-.26-.16-.55-.24-.87-.24s-.62,.08-.87,.24c-.26,.16-.46,.38-.62,.66-.15,.28-.23,.6-.23,.97s.08,.68,.23,.96c.15,.28,.36,.5,.62,.66,.26,.16,.55,.24,.87,.24s.61-.08,.87-.24c.26-.16,.46-.38,.61-.66,.15-.28,.22-.6,.22-.96Z"/>
      <path class="cls-1" d="M119.08,45.95c.43,0,.77,.09,1.02,.27,.25,.18,.42,.42,.53,.72,.1,.3,.16,.64,.16,1.01v2.68c0,.11-.04,.2-.11,.28-.07,.08-.16,.11-.27,.11-.12,0-.21-.04-.28-.11-.07-.08-.11-.17-.11-.28v-2.66c0-.24-.04-.46-.11-.66-.07-.2-.2-.36-.37-.47-.17-.12-.4-.18-.69-.18-.27,0-.51,.06-.74,.18-.22,.12-.4,.28-.54,.47-.13,.2-.2,.42-.2,.66v2.66c0,.11-.04,.2-.11,.28-.07,.08-.16,.11-.27,.11s-.2-.04-.27-.11c-.07-.08-.11-.17-.11-.28v-4.16c0-.11,.04-.21,.11-.28s.16-.11,.27-.11c.12,0,.21,.04,.28,.11s.11,.17,.11,.28v.67l-.19,.21c.03-.17,.11-.33,.22-.5,.12-.17,.26-.32,.43-.45,.17-.13,.36-.24,.57-.32,.21-.08,.43-.12,.66-.12Z"/>
      <path class="cls-1" d="M121.92,50.23c-.05-.08-.08-.17-.07-.26,0-.09,.06-.17,.16-.24,.07-.04,.15-.06,.23-.06,.09,0,.16,.05,.23,.12,.18,.21,.38,.38,.61,.5s.51,.19,.84,.19c.15,0,.3-.03,.45-.08,.16-.04,.29-.12,.39-.23,.11-.11,.16-.26,.16-.44s-.05-.32-.16-.42c-.11-.11-.25-.19-.42-.26-.18-.07-.36-.12-.56-.18-.21-.06-.42-.12-.62-.19-.2-.07-.39-.16-.55-.27s-.29-.25-.39-.42c-.1-.17-.15-.38-.15-.63,0-.29,.08-.53,.23-.75,.16-.21,.36-.37,.63-.49,.26-.11,.55-.17,.87-.17,.18,0,.36,.02,.56,.06,.19,.04,.38,.11,.57,.21,.18,.1,.35,.23,.49,.41,.06,.06,.09,.14,.1,.24,0,.1-.04,.18-.12,.26-.07,.05-.15,.07-.23,.07s-.16-.03-.22-.09c-.14-.17-.31-.29-.51-.38s-.42-.13-.66-.13c-.15,0-.29,.02-.44,.07s-.27,.12-.37,.22-.15,.25-.15,.43c0,.17,.06,.31,.17,.42,.11,.11,.25,.2,.44,.26,.18,.07,.39,.13,.61,.2,.2,.05,.4,.11,.59,.18,.19,.07,.36,.16,.51,.26,.15,.11,.27,.25,.36,.42s.13,.38,.13,.64c0,.29-.08,.55-.25,.76-.17,.21-.38,.38-.66,.49-.27,.11-.56,.17-.87,.17-.35,0-.7-.07-1.04-.2-.34-.13-.64-.36-.89-.68Z"/>
    </g>
  </g>
</svg>